<svg version="1.1" class="pagelogo" xmlns="http://www.w3.org/2000/svg" xmlns:xlink="http://www.w3.org/1999/xlink" x="0px" y="0px" viewBox="0 0 404 108.4" style="enable-background:new 0 0 404 108.4;" xml:space="preserve" font-family="">
  <style type="text/css">
    .st0 {
      fill: #FFFFFF;
    }

    .st1 {
      font-family: 'Poppins';
    }

    .st2 {
      font-size: 60.84px;
    }

    .st3 {
      fill: url(#SVGID_1_);
    }

    .st4 {
      fill: url(#SVGID_00000041985530486102922230000017793392463314601603_);
    }
  </style>
  <g id="Capa_2">
    <g id="Capa_4">
      <g>
        <g transform="translate(370.14 265.37)">
          <text transform="matrix(1 0 0 1 -285.933 -185.5334)" class="st0 st1 st2">SparqNet</text>
        </g>
        <g>
          <linearGradient id="SVGID_1_" gradientUnits="userSpaceOnUse" x1="25.985" y1="470.597" x2="64.085" y2="405.837" gradientTransform="matrix(1 0 0 1 0 -388.99)">
            <stop offset="0" style="stop-color:#1FADE0"></stop>
            <stop offset="1" style="stop-color:#00F193"></stop>
          </linearGradient>
          <path class="st3" d="M68.6,65.7c-0.9,0-1.8-0.3-2.5-1c-1.3-1.4-1.3-3.6,0-4.9l4.6-4.5c1-1.3,1.2-2.9,0.5-4.4
                                     c-0.7-1.5-2.1-2.5-3.7-2.7l-45.4-3.6c-2.8-0.2-5.1-2-6.1-4.6c-1-2.6-0.4-5.5,1.6-7.5L48.1,1.4c1.4-1.5,3.6-1.8,5.4-0.8
                                     s2.7,3,2.2,5l-6.6,26.9c-0.5,1.9-2.3,3-4.2,2.5c-1.9-0.5-3-2.3-2.5-4.2l4.5-18.3L22.6,37.5c0,0-0.1,0.1,0,0.2s0.1,0.1,0.1,0.1
                                     l45.4,3.6c4.2,0.3,7.9,3,9.5,6.8c1.7,3.9,1,8.4-1.6,11.6l-0.2,0.3l-4.7,4.7C70.4,65.4,69.5,65.7,68.6,65.7L68.6,65.7L68.6,65.7z
                                     "></path>
          <linearGradient id="SVGID_00000163795816331314781950000004036592584987899293_" gradientUnits="userSpaceOnUse" x1="21.8295" y1="468.1497" x2="59.9195" y2="403.3897" gradientTransform="matrix(1 0 0 1 0 -388.99)">
            <stop offset="0" style="stop-color:#1FADE0"></stop>
            <stop offset="1" style="stop-color:#00F193"></stop>
          </linearGradient>
          <path style="fill:url(#SVGID_00000163795816331314781950000004036592584987899293_);" d="M27.3,108.4c-0.8,0-1.5-0.2-2.2-0.6
                                     c-1.8-1-2.7-3-2.2-5L29.4,76c0.5-1.9,2.3-3,4.2-2.5s3,2.3,2.5,4.2l-4.5,18.3L56,71c0,0,0.1-0.1,0-0.2s-0.1-0.1-0.2-0.1
                                     l-45.4-3.6c-4.2-0.3-7.9-3-9.6-6.8s-1-8.3,1.6-11.6l0.2-0.3l4.7-4.7c1.4-1.3,3.6-1.3,4.9,0s1.3,3.6,0,4.9l-4.6,4.5
                                     c-1,1.3-1.2,2.9-0.5,4.4c0.7,1.5,2.1,2.5,3.7,2.7l45.4,3.6c2.8,0.2,5.1,2,6.1,4.6c1,2.6,0.4,5.5-1.6,7.5l-30.5,31.2
                                     C29.6,108,28.4,108.4,27.3,108.4L27.3,108.4L27.3,108.4z"></path>
        </g>
      </g>
    </g>
  </g>
</svg>